<?xml version="1.0" encoding="utf-8"?>
<!-- Generator: Adobe Illustrator 19.2.1, SVG Export Plug-In . SVG Version: 6.00 Build 0)  -->
<svg version="1.1" id="layer" xmlns="http://www.w3.org/2000/svg" xmlns:xlink="http://www.w3.org/1999/xlink" height="120" width="120" viewBox="0 0 652 652" xml:space="preserve" >
<style type="text/css">
	.st0{fill:#000;}
	.st1{fill:#ccc;}
	.st2{fill:#E84908;}
</style>
<path class="st0" d="M322,334.2c-2,0.7-4.3,1.2-6.5,1.2l18.6,23.7H322l-22-29.4h-0.2V359h-9.7v-63.5h20.6c6.3,0,13.1,0.9,17.7,5.3
	c4.2,3.8,6.1,9.5,6.1,15C334.6,324.5,330.7,331.2,322,334.2 M310.1,304.1h-10.3v24.3h6.7c8.6,0,18.4-2.3,18.4-12.4
	C324.9,307.8,317.9,304.1,310.1,304.1"/>
<polygon class="st0" points="341.8,359 341.8,295.6 377.7,295.6 377.7,304.1 351.5,304.1 351.5,322.8 377.7,322.8 377.7,331.2 
	351.5,331.2 351.5,350.5 377.7,350.5 377.7,359 "/>
<polygon class="st0" points="448.7,359 448.7,305.4 448.4,305.4 426,359 420.1,359 397.6,305.4 397.5,305.4 397.5,359 387.7,359 
	387.7,295.6 403,295.6 423,344.2 443.1,295.6 458.4,295.6 458.4,359 "/>
<polygon class="st0" points="469.1,359 469.1,295.6 505.1,295.6 505.1,304.1 478.9,304.1 478.9,322.8 505.1,322.8 505.1,331.2 
	478.9,331.2 478.9,350.5 505.1,350.5 505.1,359 "/>
<path class="st0" d="M561.4,349.8c-7.3,6.9-16,9.2-26,9.2h-21.3v-63.5h21.6c10.7,0,20.8,3.1,27.2,11.7c4.3,5.7,6.8,13.1,6.8,20.2
	C569.8,334.8,567,344.5,561.4,349.8 M558.1,317.8c-4-9.2-12.2-13.7-22.4-13.7h-11.8v46.5h11.6c15.1,0,24.6-8.4,24.6-23.1
	C560.1,324.2,559.3,320.9,558.1,317.8"/>
<polygon class="st0" points="600,336.1 600,359 590.2,359 590.2,336.1 569.5,295.6 580.4,295.6 595.1,325.3 609.7,295.6 
	620.5,295.6 "/>
<path class="st1" d="M123.1,355.2h-13v-67.7h13v25c2.1-2.5,6.7-4.9,11.7-4.9c13.5,0,21.1,11.1,21.1,24.4s-7.6,24.3-21.1,24.3
	c-5,0-9.6-2.4-11.7-4.9V355.2z M123.1,339.6c1.5,3.2,4.9,5.4,8.8,5.4c7,0,11.1-5.6,11.1-13c0-7.5-4.2-13.1-11.1-13.1
	c-3.7,0-7.3,2.3-8.8,5.4V339.6z"/>
<path class="st1" d="M212.5,307.6c9.6,0,15.3,6.7,15.3,17.2v30.4h-12.9v-27.7c0-5-2.2-8.3-6.7-8.3c-3.3,0-6.4,2.1-7.2,6.1v30h-13
	v-27.7c0-5-2.1-8.3-6.5-8.3c-3.3,0-6.5,2.1-7.3,6.1v30h-12.9v-46.6h12.9v3.9c2.3-2.9,6.6-4.9,11.8-4.9c5.5,0,9.9,2.5,12.5,5.9
	C201.5,310.2,206,307.6,212.5,307.6"/>
<path class="st1" d="M255.4,307.6c11.7,0,19.1,6.9,20.4,16.8h-12.7c-0.7-3.5-3.5-5.7-7.7-5.7c-5.9,0-9.6,5.4-9.6,13.3
	c0,7.8,3.6,13.2,9.6,13.2c4.2,0,7-2.2,7.7-5.7h12.7c-1.3,10-8.7,16.8-20.4,16.8c-13.2,0-22.4-9.9-22.4-24.3
	C233,317.5,242.2,307.6,255.4,307.6"/>
<path class="st2" d="M29.3,375.3c-4.4,0-8.8-3.4-8.8-9.8v-15.1c0-6,3.9-12.8,9-15.9l21.1-12.5l-21.1-12.5c-5.1-3.1-9-9.9-9-15.8
	v-15.3c0-6.5,4.4-9.8,8.8-9.8c1.9,0,3.8,0.6,5.6,1.7l47.7,28.4c3.3,2,5.2,5,5.2,8.3s-1.9,6.4-5.2,8.3l-11.4,6.8l11.4,6.8
	c3.3,2,5.2,5,5.2,8.3c0,3.3-1.9,6.4-5.2,8.3l-47.7,28.3C33,374.7,31.1,375.3,29.3,375.3 M60.9,328l-26,15.4c-2,1.2-3.9,4.6-3.9,6.9
	v13.5L76.1,337L60.9,328z M31,279.9v13.6c0,2.3,1.9,5.7,3.9,6.9l26,15.4l15.2-9L31,279.9z"/>
</svg>
